solid top
  facet normal 0.5514362539337453 -0.3026436851133138 0.7773833402566274
    outer loop
      vertex 0.0 0.0 0.0010699935347470322
      vertex 0.0011111111111111111 0.0 0.000281827752067656
      vertex 0.0011111111111111111 0.00125 0.0007684661797277567
    endloop
  endfacet
  facet normal -0.10171877956761675 0.3178121416143008 0.9426816708336946
    outer loop
      vertex 0.0 0.0 0.0010699935347470322
      vertex 0.0011111111111111111 0.00125 0.0007684661797277567
      vertex 0.0 0.00125 0.0006485732511994161
    endloop
  endfacet
  facet normal 0.3920620324119616 -0.43146422206282353 0.8124813769070184
    outer loop
      vertex 0.0011111111111111111 0.0 0.000281827752067656
      vertex 0.0022222222222222222 0.0 -0.0002543377439540314
      vertex 0.0022222222222222222 0.00125 0.0004094685818372996
    endloop
  endfacet
  facet normal 0.2883015656806851 -0.3473836196223833 0.8923042239304468
    outer loop
      vertex 0.0011111111111111111 0.0 0.000281827752067656
      vertex 0.0022222222222222222 0.00125 0.0004094685818372996
      vertex 0.0011111111111111111 0.00125 0.0007684661797277567
    endloop
  endfacet
  facet normal -0.5934578757051756 0.5280057530544869 0.6074682497915959
    outer loop
      vertex 0.0022222222222222222 0.0 -0.0002543377439540314
      vertex 0.0033333333333333335 0.0 0.0008311472009770608
      vertex 0.0033333333333333335 0.00125 -0.00025534117359154817
    endloop
  endfacet
  facet normal 0.4672154009540707 -0.41467574228277065 0.780867336923219
    outer loop
      vertex 0.0022222222222222222 0.0 -0.0002543377439540314
      vertex 0.0033333333333333335 0.00125 -0.00025534117359154817
      vertex 0.0022222222222222222 0.00125 0.0004094685818372996
    endloop
  endfacet
  facet normal 0.09962970257276467 0.35074385609121644 0.9311566301001817
    outer loop
      vertex 0.0033333333333333335 0.0 0.0008311472009770608
      vertex 0.0044444444444444444 0.0 0.0007122631529588621
      vertex 0.0044444444444444444 0.00125 0.00024141882243323336
    endloop
  endfacet
  facet normal -0.31972303038001443 0.6215840573485623 0.7151296690074602
    outer loop
      vertex 0.0033333333333333335 0.0 0.0008311472009770608
      vertex 0.0044444444444444444 0.00125 0.00024141882243323336
      vertex 0.0033333333333333335 0.00125 -0.00025534117359154817
    endloop
  endfacet
  facet normal -0.16942452876832673 0.12327250051228414 0.977803262251195
    outer loop
      vertex 0.0044444444444444444 0.0 0.0007122631529588621
      vertex 0.005555555555555556 0.0 0.0009047860087078248
      vertex 0.005555555555555556 0.00125 0.0007471974307298862
    endloop
  endfacet
  facet normal -0.3919062258474504 0.32429968635119794 0.8609525094768711
    outer loop
      vertex 0.0044444444444444444 0.0 0.0007122631529588621
      vertex 0.005555555555555556 0.00125 0.0007471974307298862
      vertex 0.0044444444444444444 0.00125 0.00024141882243323336
    endloop
  endfacet
  facet normal 0.13704026792623966 -0.05548310018483603 0.9890104097331756
    outer loop
      vertex 0.005555555555555556 0.0 0.0009047860087078248
      vertex 0.006666666666666667 0.0 0.0007508270990098282
      vertex 0.006666666666666667 0.00125 0.0008209516139274781
    endloop
  endfacet
  facet normal -0.06571510758451507 0.12481040133808663 0.9900019638126892
    outer loop
      vertex 0.005555555555555556 0.0 0.0009047860087078248
      vertex 0.006666666666666667 0.00125 0.0008209516139274781
      vertex 0.005555555555555556 0.00125 0.0007471974307298862
    endloop
  endfacet
  facet normal 0.5532402166975174 -0.3668671577378276 0.7478861886690059
    outer loop
      vertex 0.006666666666666667 0.0 0.0007508270990098282
      vertex 0.007777777777777778 0.0 -7.110458150444466e-05
      vertex 0.007777777777777778 0.00125 0.0005420688586795688
    endloop
  endfacet
  facet normal 0.2430837637805709 -0.05433149298988043 0.9684825102477391
    outer loop
      vertex 0.006666666666666667 0.0 0.0007508270990098282
      vertex 0.007777777777777778 0.00125 0.0005420688586795688
      vertex 0.006666666666666667 0.00125 0.0008209516139274781
    endloop
  endfacet
  facet normal 0.14681348747510672 -0.40527400571804634 0.9023296405331289
    outer loop
      vertex 0.007777777777777778 0.0 -7.110458150444466e-05
      vertex 0.008888888888888889 0.0 -0.0002518878450334828
      vertex 0.008888888888888889 0.00125 0.00030953946976495914
    endloop
  endfacet
  facet normal 0.18465709610543982 -0.4328316037885318 0.8823596543472246
    outer loop
      vertex 0.007777777777777778 0.0 -7.110458150444466e-05
      vertex 0.008888888888888889 0.00125 0.00030953946976495914
      vertex 0.007777777777777778 0.00125 0.0005420688586795688
    endloop
  endfacet
  facet normal -0.5917178677918953 0.2534113245137383 0.7652794689157719
    outer loop
      vertex 0.008888888888888889 0.0 -0.0002518878450334828
      vertex 0.01 0.0 0.0006072287577914025
      vertex 0.01 0.00125 0.0001933091787244819
    endloop
  endfacet
  facet normal 0.09499272014863204 -0.4078608449257087 0.908089155477176
    outer loop
      vertex 0.008888888888888889 0.0 -0.0002518878450334828
      vertex 0.01 0.00125 0.0001933091787244819
      vertex 0.008888888888888889 0.00125 0.00030953946976495914
    endloop
  endfacet
  facet normal -0.10714436201476886 0.050435626318371285 0.9929634098426395
    outer loop
      vertex 0.0 0.00125 0.0006485732511994161
      vertex 0.0011111111111111111 0.00125 0.0007684661797277567
      vertex 0.0011111111111111111 0.0025 0.0007049748846074712
    endloop
  endfacet
  facet normal -0.3570955691305573 0.27717019344542865 0.8919974430303862
    outer loop
      vertex 0.0 0.00125 0.0006485732511994161
      vertex 0.0011111111111111111 0.0025 0.0007049748846074712
      vertex 0.0 0.0025 0.0002601609922698987
    endloop
  endfacet
  facet normal 0.30090923814254694 -0.20515005288787797 0.9313254459105972
    outer loop
      vertex 0.0011111111111111111 0.00125 0.0007684661797277567
      vertex 0.0022222222222222222 0.00125 0.0004094685818372996
      vertex 0.0022222222222222222 0.0025 0.0006848154729115764
    endloop
  endfacet
  facet normal 0.018117137218726424 0.050719315435098736 0.9985486069194593
    outer loop
      vertex 0.0011111111111111111 0.00125 0.0007684661797277567
      vertex 0.0022222222222222222 0.0025 0.0006848154729115764
      vertex 0.0011111111111111111 0.0025 0.0007049748846074712
    endloop
  endfacet
  facet normal 0.5134119933163718 -0.010605567720606125 0.8580767139669002
    outer loop
      vertex 0.0022222222222222222 0.00125 0.0004094685818372996
      vertex 0.0033333333333333335 0.00125 -0.00025534117359154817
      vertex 0.0033333333333333335 0.0025 -0.00023989155302152877
    endloop
  endfacet
  facet normal 0.6307102444852617 -0.1669372990506288 0.7578499361265543
    outer loop
      vertex 0.0022222222222222222 0.00125 0.0004094685818372996
      vertex 0.0033333333333333335 0.0025 -0.00023989155302152877
      vertex 0.0022222222222222222 0.0025 0.0006848154729115764
    endloop
  endfacet
  facet normal -0.3397355122464586 0.5542057974267842 0.7598919106143839
    outer loop
      vertex 0.0033333333333333335 0.00125 -0.00025534117359154817
      vertex 0.0044444444444444444 0.00125 0.00024141882243323336
      vertex 0.0044444444444444444 0.0025 -0.0006702335285220174
    endloop
  endfacet
  facet normal 0.3611412311303331 -0.011524674299450354 0.932439913914006
    outer loop
      vertex 0.0033333333333333335 0.00125 -0.00025534117359154817
      vertex 0.0044444444444444444 0.0025 -0.0006702335285220174
      vertex 0.0033333333333333335 0.0025 -0.00023989155302152877
    endloop
  endfacet
  facet normal -0.41355563361467107 -0.05980399366770287 0.9085126417650782
    outer loop
      vertex 0.0044444444444444444 0.00125 0.00024141882243323336
      vertex 0.005555555555555556 0.00125 0.0007471974307298862
      vertex 0.005555555555555556 0.0025 0.0008294802616428308
    endloop
  endfacet
  facet normal -0.7370345025929722 0.39825035145919246 0.5460556744052385
    outer loop
      vertex 0.0044444444444444444 0.00125 0.00024141882243323336
      vertex 0.005555555555555556 0.0025 0.0008294802616428308
      vertex 0.0044444444444444444 0.0025 -0.0006702335285220174
    endloop
  endfacet
  facet normal -0.06622092748651794 0.01909957775672202 0.9976221704093892
    outer loop
      vertex 0.005555555555555556 0.00125 0.0007471974307298862
      vertex 0.006666666666666667 0.00125 0.0008209516139274781
      vertex 0.006666666666666667 0.0025 0.0007970202369953623
    endloop
  endfacet
  facet normal 0.029138555530955738 -0.06565622009335272 0.9974167661236814
    outer loop
      vertex 0.005555555555555556 0.00125 0.0007471974307298862
      vertex 0.006666666666666667 0.0025 0.0007970202369953623
      vertex 0.005555555555555556 0.0025 0.0008294802616428308
    endloop
  endfacet
  facet normal 0.23275640391690022 -0.2930375696661481 0.9273367453087525
    outer loop
      vertex 0.006666666666666667 0.00125 0.0008209516139274781
      vertex 0.007777777777777778 0.00125 0.0005420688586795688
      vertex 0.007777777777777778 0.0025 0.0009370677239091873
    endloop
  endfacet
  facet normal -0.12503075209374576 0.018991387198718183 0.9919710874028237
    outer loop
      vertex 0.006666666666666667 0.00125 0.0008209516139274781
      vertex 0.007777777777777778 0.0025 0.0009370677239091873
      vertex 0.006666666666666667 0.0025 0.0007970202369953623
    endloop
  endfacet
  facet normal 0.19431849427881187 -0.3163557339232068 0.9285253752025975
    outer loop
      vertex 0.007777777777777778 0.00125 0.0005420688586795688
      vertex 0.008888888888888889 0.00125 0.00030953946976495914
      vertex 0.008888888888888889 0.0025 0.0007354240798842307
    endloop
  endfacet
  facet normal 0.17051096554636372 -0.29690061825299136 0.9395616177289483
    outer loop
      vertex 0.007777777777777778 0.00125 0.0005420688586795688
      vertex 0.008888888888888889 0.0025 0.0007354240798842307
      vertex 0.007777777777777778 0.0025 0.0009370677239091873
    endloop
  endfacet
  facet normal 0.10020218544632302 0.26908633310705266 0.9578893815920401
    outer loop
      vertex 0.008888888888888889 0.00125 0.00030953946976495914
      vertex 0.01 0.00125 0.0001933091787244819
      vertex 0.01 0.0025 -0.00015783566414326046
    endloop
  endfacet
  facet normal 0.6055766340328318 -0.256643796717531 0.7532668198718675
    outer loop
      vertex 0.008888888888888889 0.00125 0.00030953946976495914
      vertex 0.01 0.0025 -0.00015783566414326046
      vertex 0.008888888888888889 0.0025 0.0007354240798842307
    endloop
  endfacet
  facet normal -0.36311230946221396 -0.21319435670183426 0.907026800589436
    outer loop
      vertex 0.0 0.0025 0.0002601609922698987
      vertex 0.0011111111111111111 0.0025 0.0007049748846074712
      vertex 0.0011111111111111111 0.00375 0.0009987842248652353
    endloop
  endfacet
  facet normal -0.3997342229066694 -0.17621398268242133 0.8995338700373658
    outer loop
      vertex 0.0 0.0025 0.0002601609922698987
      vertex 0.0011111111111111111 0.00375 0.0009987842248652353
      vertex 0.0 0.00375 0.000505029457693971
    endloop
  endfacet
  facet normal 0.016334287291475708 -0.43499518571349394 0.9002846102565357
    outer loop
      vertex 0.0011111111111111111 0.0025 0.0007049748846074712
      vertex 0.0022222222222222222 0.0025 0.0006848154729115764
      vertex 0.0022222222222222222 0.00375 0.0012887844577717394
    endloop
  endfacet
  facet normal -0.2462519906867377 -0.22176575268600632 0.9434934594465549
    outer loop
      vertex 0.0011111111111111111 0.0025 0.0007049748846074712
      vertex 0.0022222222222222222 0.00375 0.0012887844577717394
      vertex 0.0011111111111111111 0.00375 0.0009987842248652353
    endloop
  endfacet
  facet normal 0.4897523093062996 -0.6433016138962075 0.588477449939827
    outer loop
      vertex 0.0022222222222222222 0.0025 0.0006848154729115764
      vertex 0.0033333333333333335 0.0025 -0.00023989155302152877
      vertex 0.0033333333333333335 0.00375 0.0011265618556052298
    endloop
  endfacet
  facet normal 0.1303380006408577 -0.4313420578853012 0.8927239409180295
    outer loop
      vertex 0.0022222222222222222 0.0025 0.0006848154729115764
      vertex 0.0033333333333333335 0.00375 0.0011265618556052298
      vertex 0.0022222222222222222 0.00375 0.0012887844577717394
    endloop
  endfacet
  facet normal 0.27986572994224757 -0.6320879082654699 0.7225925888275327
    outer loop
      vertex 0.0033333333333333335 0.0025 -0.00023989155302152877
      vertex 0.0044444444444444444 0.0025 -0.0006702335285220174
      vertex 0.0044444444444444444 0.00375 0.0004232040427293802
    endloop
  endfacet
  facet normal 0.3929070002527675 -0.6785092246115271 0.6206845585878836
    outer loop
      vertex 0.0033333333333333335 0.0025 -0.00023989155302152877
      vertex 0.0044444444444444444 0.00375 0.0004232040427293802
      vertex 0.0033333333333333335 0.00375 0.0011265618556052298
    endloop
  endfacet
  facet normal -0.7780957330759749 -0.24948158633339756 0.576477205316509
    outer loop
      vertex 0.0044444444444444444 0.0025 -0.0006702335285220174
      vertex 0.005555555555555556 0.0025 0.0008294802616428308
      vertex 0.005555555555555556 0.00375 0.0013704417776242437
    endloop
  endfacet
  facet normal -0.5400454285816051 -0.554131416987223 0.6334739992895075
    outer loop
      vertex 0.0044444444444444444 0.0025 -0.0006702335285220174
      vertex 0.005555555555555556 0.00375 0.0013704417776242437
      vertex 0.0044444444444444444 0.00375 0.0004232040427293802
    endloop
  endfacet
  facet normal 0.027732787969071488 0.3131546189337112 0.9492971490065397
    outer loop
      vertex 0.005555555555555556 0.0025 0.0008294802616428308
      vertex 0.006666666666666667 0.0025 0.0007970202369953623
      vertex 0.006666666666666667 0.00375 0.00038466961098032273
    endloop
  endfacet
  facet normal 0.6313948601396736 -0.30799122175518356 0.7116754442236654
    outer loop
      vertex 0.005555555555555556 0.0025 0.0008294802616428308
      vertex 0.006666666666666667 0.00375 0.00038466961098032273
      vertex 0.005555555555555556 0.00375 0.0013704417776242437
    endloop
  endfacet
  facet normal -0.12457080731221892 -0.0877598888013098 0.9883219697462784
    outer loop
      vertex 0.006666666666666667 0.0025 0.0007970202369953623
      vertex 0.007777777777777778 0.0025 0.0009370677239091873
      vertex 0.007777777777777778 0.00375 0.001048063800450721
    endloop
  endfacet
  facet normal -0.49323235574811275 0.27251727071581966 0.8261090608417075
    outer loop
      vertex 0.006666666666666667 0.0025 0.0007970202369953623
      vertex 0.007777777777777778 0.00375 0.001048063800450721
      vertex 0.006666666666666667 0.00375 0.00038466961098032273
    endloop
  endfacet
  facet normal 0.17826128464874202 -0.05807355737438534 0.9822679758239419
    outer loop
      vertex 0.007777777777777778 0.0025 0.0009370677239091873
      vertex 0.008888888888888889 0.0025 0.0007354240798842307
      vertex 0.008888888888888889 0.00375 0.0008093264654904502
    endloop
  endfacet
  facet normal 0.20928205309351525 -0.08649017004512168 0.9740228296803567
    outer loop
      vertex 0.007777777777777778 0.0025 0.0009370677239091873
      vertex 0.008888888888888889 0.00375 0.0008093264654904502
      vertex 0.007777777777777778 0.00375 0.001048063800450721
    endloop
  endfacet
  facet normal 0.6232983724608873 -0.10194417104776894 0.7753105989711429
    outer loop
      vertex 0.008888888888888889 0.0025 0.0007354240798842307
      vertex 0.01 0.0025 -0.00015783566414326046
      vertex 0.01 0.00375 6.5245470789444534e-06
    endloop
  endfacet
  facet normal 0.5849787649991957 -0.047867157122186296 0.8096348434751655
    outer loop
      vertex 0.008888888888888889 0.0025 0.0007354240798842307
      vertex 0.01 0.00375 6.5245470789444534e-06
      vertex 0.008888888888888889 0.00375 0.0008093264654904502
    endloop
  endfacet
  facet normal -0.40441856529214926 0.09060231992419363 0.9100751857244508
    outer loop
      vertex 0.0 0.00375 0.000505029457693971
      vertex 0.0011111111111111111 0.00375 0.0009987842248652353
      vertex 0.0011111111111111111 0.005 0.0008743407704323041
    endloop
  endfacet
  facet normal 0.4057224288642317 -0.5714044704601018 0.7133626299819182
    outer loop
      vertex 0.0 0.00375 0.000505029457693971
      vertex 0.0011111111111111111 0.005 0.0008743407704323041
      vertex 0.0 0.005 0.0015062812166951843
    endloop
  endfacet
  facet normal -0.16666072117454936 0.7513207117947394 0.6385463115904948
    outer loop
      vertex 0.0011111111111111111 0.00375 0.0009987842248652353
      vertex 0.0022222222222222222 0.00375 0.0012887844577717394
      vertex 0.0022222222222222222 0.005 -0.000181979483224462
    endloop
  endfacet
  facet normal 0.6872250834781175 0.07196526542856573 0.7228711401143986
    outer loop
      vertex 0.0011111111111111111 0.00375 0.0009987842248652353
      vertex 0.0022222222222222222 0.005 -0.000181979483224462
      vertex 0.0011111111111111111 0.005 0.0008743407704323041
    endloop
  endfacet
  facet normal 0.1283793081370405 0.45862372278124963 0.8793082702582311
    outer loop
      vertex 0.0022222222222222222 0.00375 0.0012887844577717394
      vertex 0.0033333333333333335 0.00375 0.0011265618556052298
      vertex 0.0033333333333333335 0.005 0.0004745952213005119
    endloop
  endfacet
  facet normal -0.35740400363089775 0.7116487935683087 0.6048292096132396
    outer loop
      vertex 0.0022222222222222222 0.00375 0.0012887844577717394
      vertex 0.0033333333333333335 0.005 0.0004745952213005119
      vertex 0.0022222222222222222 0.005 -0.000181979483224462
    endloop
  endfacet
  facet normal 0.5048638635675853 0.33020247983673234 0.7975454855826613
    outer loop
      vertex 0.0033333333333333335 0.00375 0.0011265618556052298
      vertex 0.0044444444444444444 0.00375 0.0004232040427293802
      vertex 0.0044444444444444444 0.005 -9.432518570625115e-05
    endloop
  endfacet
  facet normal 0.413381814672487 0.4210878429867085 0.807341627681171
    outer loop
      vertex 0.0033333333333333335 0.00375 0.0011265618556052298
      vertex 0.0044444444444444444 0.005 -9.432518570625115e-05
      vertex 0.0033333333333333335 0.005 0.0004745952213005119
    endloop
  endfacet
  facet normal -0.5862724585970653 0.4282003749795412 0.6876983664063283
    outer loop
      vertex 0.0044444444444444444 0.00375 0.0004232040427293802
      vertex 0.005555555555555556 0.00375 0.0013704417776242437
      vertex 0.005555555555555556 0.005 0.0005921202127186023
    endloop
  endfacet
  facet normal -0.49573517984344284 0.33222025067622396 0.8024190529307093
    outer loop
      vertex 0.0044444444444444444 0.00375 0.0004232040427293802
      vertex 0.005555555555555556 0.005 0.0005921202127186023
      vertex 0.0044444444444444444 0.005 -9.432518570625115e-05
    endloop
  endfacet
  facet normal 0.6413621472056813 -0.25701294365186333 0.7229100517541046
    outer loop
      vertex 0.005555555555555556 0.00375 0.0013704417776242437
      vertex 0.006666666666666667 0.00375 0.00038466961098032273
      vertex 0.006666666666666667 0.005 0.0008290764618538071
    endloop
  endfacet
  facet normal -0.17813939837520135 0.5201137746670376 0.8353131246114401
    outer loop
      vertex 0.005555555555555556 0.00375 0.0013704417776242437
      vertex 0.006666666666666667 0.005 0.0008290764618538071
      vertex 0.005555555555555556 0.005 0.0005921202127186023
    endloop
  endfacet
  facet normal -0.3768713247698284 0.6778883925835837 0.6312173411485776
    outer loop
      vertex 0.006666666666666667 0.00375 0.00038466961098032273
      vertex 0.007777777777777778 0.00375 0.001048063800450721
      vertex 0.007777777777777778 0.005 -0.00029435890483744986
    endloop
  endfacet
  facet normal 0.6897666590899574 -0.24253941705530951 0.6821998147041298
    outer loop
      vertex 0.006666666666666667 0.00375 0.00038466961098032273
      vertex 0.007777777777777778 0.005 -0.00029435890483744986
      vertex 0.006666666666666667 0.005 0.0008290764618538071
    endloop
  endfacet
  facet normal 0.15303259003260838 0.6850602526189667 0.7122313364838344
    outer loop
      vertex 0.007777777777777778 0.00375 0.001048063800450721
      vertex 0.008888888888888889 0.00375 0.0008093264654904502
      vertex 0.008888888888888889 0.005 -0.0003929869850820026
    endloop
  endfacet
  facet normal 0.060380034074046005 0.7305156772219832 0.6802213586900403
    outer loop
      vertex 0.007777777777777778 0.00375 0.001048063800450721
      vertex 0.008888888888888889 0.005 -0.0003929869850820026
      vertex 0.007777777777777778 0.005 -0.00029435890483744986
    endloop
  endfacet
  facet normal 0.5154298297600048 -0.474790939722719 0.7133762360429381
    outer loop
      vertex 0.008888888888888889 0.00375 0.0008093264654904502
      vertex 0.01 0.00375 6.5245470789444534e-06
      vertex 0.01 0.005 0.0008384679798255279
    endloop
  endfacet
  facet normal -0.6241143383044792 0.5416400996451091 0.5631228064811428
    outer loop
      vertex 0.008888888888888889 0.00375 0.0008093264654904502
      vertex 0.01 0.005 0.0008384679798255279
      vertex 0.008888888888888889 0.005 -0.0003929869850820026
    endloop
  endfacet
endsolid top
solid bottom
  facet normal 0.10171877956761684 -0.3178121416143008 -0.9426816708336946
    outer loop
      vertex 0.0 0.0 6.999353474703218e-05
      vertex 0.0 0.00125 -0.0003514267488005839
      vertex 0.0011111111111111111 0.00125 -0.00023153382027224316
    endloop
  endfacet
  facet normal -0.5514362539337453 0.3026436851133139 -0.7773833402566274
    outer loop
      vertex 0.0 0.0 6.999353474703218e-05
      vertex 0.0011111111111111111 0.00125 -0.00023153382027224316
      vertex 0.0011111111111111111 0.0 -0.000718172247932344
    endloop
  endfacet
  facet normal -0.2883015656806851 0.34738361962238334 -0.8923042239304468
    outer loop
      vertex 0.0011111111111111111 0.0 -0.000718172247932344
      vertex 0.0011111111111111111 0.00125 -0.00023153382027224316
      vertex 0.0022222222222222222 0.00125 -0.0005905314181627004
    endloop
  endfacet
  facet normal -0.39206203241196147 0.4314642220628236 -0.8124813769070185
    outer loop
      vertex 0.0011111111111111111 0.0 -0.000718172247932344
      vertex 0.0022222222222222222 0.00125 -0.0005905314181627004
      vertex 0.0022222222222222222 0.0 -0.0012543377439540313
    endloop
  endfacet
  facet normal -0.4672154009540708 0.4146757422827706 -0.780867336923219
    outer loop
      vertex 0.0022222222222222222 0.0 -0.0012543377439540313
      vertex 0.0022222222222222222 0.00125 -0.0005905314181627004
      vertex 0.0033333333333333335 0.00125 -0.0012553411735915483
    endloop
  endfacet
  facet normal 0.5934578757051755 -0.528005753054487 -0.6074682497915957
    outer loop
      vertex 0.0022222222222222222 0.0 -0.0012543377439540313
      vertex 0.0033333333333333335 0.00125 -0.0012553411735915483
      vertex 0.0033333333333333335 0.0 -0.00016885279902293914
    endloop
  endfacet
  facet normal 0.31972303038001454 -0.6215840573485624 -0.7151296690074602
    outer loop
      vertex 0.0033333333333333335 0.0 -0.00016885279902293914
      vertex 0.0033333333333333335 0.00125 -0.0012553411735915483
      vertex 0.0044444444444444444 0.00125 -0.0007585811775667666
    endloop
  endfacet
  facet normal -0.09962970257276473 -0.35074385609121644 -0.9311566301001817
    outer loop
      vertex 0.0033333333333333335 0.0 -0.00016885279902293914
      vertex 0.0044444444444444444 0.00125 -0.0007585811775667666
      vertex 0.0044444444444444444 0.0 -0.0002877368470411379
    endloop
  endfacet
  facet normal 0.3919062258474504 -0.3242996863511979 -0.8609525094768712
    outer loop
      vertex 0.0044444444444444444 0.0 -0.0002877368470411379
      vertex 0.0044444444444444444 0.00125 -0.0007585811775667666
      vertex 0.005555555555555556 0.00125 -0.0002528025692701138
    endloop
  endfacet
  facet normal 0.16942452876832667 -0.12327250051228412 -0.9778032622511951
    outer loop
      vertex 0.0044444444444444444 0.0 -0.0002877368470411379
      vertex 0.005555555555555556 0.00125 -0.0002528025692701138
      vertex 0.005555555555555556 0.0 -9.521399129217528e-05
    endloop
  endfacet
  facet normal 0.0657151075845151 -0.12481040133808659 -0.9900019638126892
    outer loop
      vertex 0.005555555555555556 0.0 -9.521399129217528e-05
      vertex 0.005555555555555556 0.00125 -0.0002528025692701138
      vertex 0.006666666666666667 0.00125 -0.00017904838607252194
    endloop
  endfacet
  facet normal -0.13704026792623963 0.05548310018483604 -0.9890104097331756
    outer loop
      vertex 0.005555555555555556 0.0 -9.521399129217528e-05
      vertex 0.006666666666666667 0.00125 -0.00017904838607252194
      vertex 0.006666666666666667 0.0 -0.00024917290099017177
    endloop
  endfacet
  facet normal -0.24308376378057095 0.05433149298988043 -0.9684825102477391
    outer loop
      vertex 0.006666666666666667 0.0 -0.00024917290099017177
      vertex 0.006666666666666667 0.00125 -0.00017904838607252194
      vertex 0.007777777777777778 0.00125 -0.0004579311413204313
    endloop
  endfacet
  facet normal -0.5532402166975174 0.3668671577378275 -0.7478861886690059
    outer loop
      vertex 0.006666666666666667 0.0 -0.00024917290099017177
      vertex 0.007777777777777778 0.00125 -0.0004579311413204313
      vertex 0.007777777777777778 0.0 -0.0010711045815044447
    endloop
  endfacet
  facet normal -0.18465709610543976 0.4328316037885318 -0.8823596543472246
    outer loop
      vertex 0.007777777777777778 0.0 -0.0010711045815044447
      vertex 0.007777777777777778 0.00125 -0.0004579311413204313
      vertex 0.008888888888888889 0.00125 -0.0006904605302350408
    endloop
  endfacet
  facet normal -0.14681348747510667 0.40527400571804634 -0.9023296405331289
    outer loop
      vertex 0.007777777777777778 0.0 -0.0010711045815044447
      vertex 0.008888888888888889 0.00125 -0.0006904605302350408
      vertex 0.008888888888888889 0.0 -0.0012518878450334828
    endloop
  endfacet
  facet normal -0.09499272014863211 0.4078608449257087 -0.908089155477176
    outer loop
      vertex 0.008888888888888889 0.0 -0.0012518878450334828
      vertex 0.008888888888888889 0.00125 -0.0006904605302350408
      vertex 0.01 0.00125 -0.0008066908212755182
    endloop
  endfacet
  facet normal 0.5917178677918953 -0.2534113245137384 -0.7652794689157719
    outer loop
      vertex 0.008888888888888889 0.0 -0.0012518878450334828
      vertex 0.01 0.00125 -0.0008066908212755182
      vertex 0.01 0.0 -0.0003927712422085975
    endloop
  endfacet
  facet normal 0.3570955691305573 -0.27717019344542865 -0.8919974430303862
    outer loop
      vertex 0.0 0.00125 -0.0003514267488005839
      vertex 0.0 0.0025 -0.0007398390077301013
      vertex 0.0011111111111111111 0.0025 -0.00029502511539252884
    endloop
  endfacet
  facet normal 0.10714436201476896 -0.05043562631837136 -0.9929634098426395
    outer loop
      vertex 0.0 0.00125 -0.0003514267488005839
      vertex 0.0011111111111111111 0.0025 -0.00029502511539252884
      vertex 0.0011111111111111111 0.00125 -0.00023153382027224316
    endloop
  endfacet
  facet normal -0.018117137218726424 -0.05071931543509882 -0.9985486069194593
    outer loop
      vertex 0.0011111111111111111 0.00125 -0.00023153382027224316
      vertex 0.0011111111111111111 0.0025 -0.00029502511539252884
      vertex 0.0022222222222222222 0.0025 -0.0003151845270884236
    endloop
  endfacet
  facet normal -0.300909238142547 0.2051500528878779 -0.9313254459105972
    outer loop
      vertex 0.0011111111111111111 0.00125 -0.00023153382027224316
      vertex 0.0022222222222222222 0.0025 -0.0003151845270884236
      vertex 0.0022222222222222222 0.00125 -0.0005905314181627004
    endloop
  endfacet
  facet normal -0.6307102444852616 0.16693729905062876 -0.7578499361265544
    outer loop
      vertex 0.0022222222222222222 0.00125 -0.0005905314181627004
      vertex 0.0022222222222222222 0.0025 -0.0003151845270884236
      vertex 0.0033333333333333335 0.0025 -0.0012398915530215287
    endloop
  endfacet
  facet normal -0.5134119933163719 0.01060556772060632 -0.8580767139669001
    outer loop
      vertex 0.0022222222222222222 0.00125 -0.0005905314181627004
      vertex 0.0033333333333333335 0.0025 -0.0012398915530215287
      vertex 0.0033333333333333335 0.00125 -0.0012553411735915483
    endloop
  endfacet
  facet normal -0.3611412311303331 0.011524674299450576 -0.932439913914006
    outer loop
      vertex 0.0033333333333333335 0.00125 -0.0012553411735915483
      vertex 0.0033333333333333335 0.0025 -0.0012398915530215287
      vertex 0.0044444444444444444 0.0025 -0.0016702335285220173
    endloop
  endfacet
  facet normal 0.33973551224645865 -0.5542057974267841 -0.7598919106143838
    outer loop
      vertex 0.0033333333333333335 0.00125 -0.0012553411735915483
      vertex 0.0044444444444444444 0.0025 -0.0016702335285220173
      vertex 0.0044444444444444444 0.00125 -0.0007585811775667666
    endloop
  endfacet
  facet normal 0.7370345025929721 -0.39825035145919246 -0.5460556744052385
    outer loop
      vertex 0.0044444444444444444 0.00125 -0.0007585811775667666
      vertex 0.0044444444444444444 0.0025 -0.0016702335285220173
      vertex 0.005555555555555556 0.0025 -0.00017051973835716916
    endloop
  endfacet
  facet normal 0.41355563361467096 0.05980399366770288 -0.9085126417650783
    outer loop
      vertex 0.0044444444444444444 0.00125 -0.0007585811775667666
      vertex 0.005555555555555556 0.0025 -0.00017051973835716916
      vertex 0.005555555555555556 0.00125 -0.0002528025692701138
    endloop
  endfacet
  facet normal -0.029138555530955804 0.06565622009335273 -0.9974167661236814
    outer loop
      vertex 0.005555555555555556 0.00125 -0.0002528025692701138
      vertex 0.005555555555555556 0.0025 -0.00017051973835716916
      vertex 0.006666666666666667 0.0025 -0.00020297976300463777
    endloop
  endfacet
  facet normal 0.06622092748651794 -0.019099577756722063 -0.9976221704093892
    outer loop
      vertex 0.005555555555555556 0.00125 -0.0002528025692701138
      vertex 0.006666666666666667 0.0025 -0.00020297976300463777
      vertex 0.006666666666666667 0.00125 -0.00017904838607252194
    endloop
  endfacet
  facet normal 0.1250307520937458 -0.018991387198718228 -0.9919710874028237
    outer loop
      vertex 0.006666666666666667 0.00125 -0.00017904838607252194
      vertex 0.006666666666666667 0.0025 -0.00020297976300463777
      vertex 0.007777777777777778 0.0025 -6.293227609081265e-05
    endloop
  endfacet
  facet normal -0.23275640391690028 0.2930375696661481 -0.9273367453087525
    outer loop
      vertex 0.006666666666666667 0.00125 -0.00017904838607252194
      vertex 0.007777777777777778 0.0025 -6.293227609081265e-05
      vertex 0.007777777777777778 0.00125 -0.0004579311413204313
    endloop
  endfacet
  facet normal -0.1705109655463638 0.29690061825299147 -0.9395616177289483
    outer loop
      vertex 0.007777777777777778 0.00125 -0.0004579311413204313
      vertex 0.007777777777777778 0.0025 -6.293227609081265e-05
      vertex 0.008888888888888889 0.0025 -0.0002645759201157694
    endloop
  endfacet
  facet normal -0.19431849427881182 0.31635573392320676 -0.9285253752025975
    outer loop
      vertex 0.007777777777777778 0.00125 -0.0004579311413204313
      vertex 0.008888888888888889 0.0025 -0.0002645759201157694
      vertex 0.008888888888888889 0.00125 -0.0006904605302350408
    endloop
  endfacet
  facet normal -0.6055766340328318 0.25664379671753096 -0.7532668198718675
    outer loop
      vertex 0.008888888888888889 0.00125 -0.0006904605302350408
      vertex 0.008888888888888889 0.0025 -0.0002645759201157694
      vertex 0.01 0.0025 -0.0011578356641432604
    endloop
  endfacet
  facet normal -0.1002021854463231 -0.26908633310705254 -0.9578893815920401
    outer loop
      vertex 0.008888888888888889 0.00125 -0.0006904605302350408
      vertex 0.01 0.0025 -0.0011578356641432604
      vertex 0.01 0.00125 -0.0008066908212755182
    endloop
  endfacet
  facet normal 0.3997342229066695 0.17621398268242133 -0.8995338700373658
    outer loop
      vertex 0.0 0.0025 -0.0007398390077301013
      vertex 0.0 0.00375 -0.000494970542306029
      vertex 0.0011111111111111111 0.00375 -1.2157751347645075e-06
    endloop
  endfacet
  facet normal 0.36311230946221396 0.2131943567018344 -0.907026800589436
    outer loop
      vertex 0.0 0.0025 -0.0007398390077301013
      vertex 0.0011111111111111111 0.00375 -1.2157751347645075e-06
      vertex 0.0011111111111111111 0.0025 -0.00029502511539252884
    endloop
  endfacet
  facet normal 0.24625199068673756 0.22176575268600643 -0.9434934594465549
    outer loop
      vertex 0.0011111111111111111 0.0025 -0.00029502511539252884
      vertex 0.0011111111111111111 0.00375 -1.2157751347645075e-06
      vertex 0.0022222222222222222 0.00375 0.00028878445777173945
    endloop
  endfacet
  facet normal -0.016334287291475708 0.43499518571349394 -0.9002846102565357
    outer loop
      vertex 0.0011111111111111111 0.0025 -0.00029502511539252884
      vertex 0.0022222222222222222 0.00375 0.00028878445777173945
      vertex 0.0022222222222222222 0.0025 -0.0003151845270884236
    endloop
  endfacet
  facet normal -0.13033800064085782 0.4313420578853012 -0.8927239409180294
    outer loop
      vertex 0.0022222222222222222 0.0025 -0.0003151845270884236
      vertex 0.0022222222222222222 0.00375 0.00028878445777173945
      vertex 0.0033333333333333335 0.00375 0.0001265618556052297
    endloop
  endfacet
  facet normal -0.4897523093062996 0.6433016138962074 -0.5884774499398271
    outer loop
      vertex 0.0022222222222222222 0.0025 -0.0003151845270884236
      vertex 0.0033333333333333335 0.00375 0.0001265618556052297
      vertex 0.0033333333333333335 0.0025 -0.0012398915530215287
    endloop
  endfacet
  facet normal -0.3929070002527675 0.678509224611527 -0.6206845585878836
    outer loop
      vertex 0.0033333333333333335 0.0025 -0.0012398915530215287
      vertex 0.0033333333333333335 0.00375 0.0001265618556052297
      vertex 0.0044444444444444444 0.00375 -0.0005767959572706198
    endloop
  endfacet
  facet normal -0.27986572994224757 0.6320879082654699 -0.7225925888275327
    outer loop
      vertex 0.0033333333333333335 0.0025 -0.0012398915530215287
      vertex 0.0044444444444444444 0.00375 -0.0005767959572706198
      vertex 0.0044444444444444444 0.0025 -0.0016702335285220173
    endloop
  endfacet
  facet normal 0.5400454285816051 0.5541314169872229 -0.6334739992895076
    outer loop
      vertex 0.0044444444444444444 0.0025 -0.0016702335285220173
      vertex 0.0044444444444444444 0.00375 -0.0005767959572706198
      vertex 0.005555555555555556 0.00375 0.0003704417776242436
    endloop
  endfacet
  facet normal 0.7780957330759751 0.24948158633339745 -0.5764772053165091
    outer loop
      vertex 0.0044444444444444444 0.0025 -0.0016702335285220173
      vertex 0.005555555555555556 0.00375 0.0003704417776242436
      vertex 0.005555555555555556 0.0025 -0.00017051973835716916
    endloop
  endfacet
  facet normal -0.6313948601396736 0.3079912217551835 -0.7116754442236654
    outer loop
      vertex 0.005555555555555556 0.0025 -0.00017051973835716916
      vertex 0.005555555555555556 0.00375 0.0003704417776242436
      vertex 0.006666666666666667 0.00375 -0.0006153303890196773
    endloop
  endfacet
  facet normal -0.027732787969071557 -0.3131546189337112 -0.9492971490065397
    outer loop
      vertex 0.005555555555555556 0.0025 -0.00017051973835716916
      vertex 0.006666666666666667 0.00375 -0.0006153303890196773
      vertex 0.006666666666666667 0.0025 -0.00020297976300463777
    endloop
  endfacet
  facet normal 0.49323235574811275 -0.27251727071581966 -0.8261090608417075
    outer loop
      vertex 0.006666666666666667 0.0025 -0.00020297976300463777
      vertex 0.006666666666666667 0.00375 -0.0006153303890196773
      vertex 0.007777777777777778 0.00375 4.806380045072101e-05
    endloop
  endfacet
  facet normal 0.12457080731221899 0.08775988880130978 -0.9883219697462784
    outer loop
      vertex 0.006666666666666667 0.0025 -0.00020297976300463777
      vertex 0.007777777777777778 0.00375 4.806380045072101e-05
      vertex 0.007777777777777778 0.0025 -6.293227609081265e-05
    endloop
  endfacet
  facet normal -0.20928205309351516 0.08649017004512168 -0.9740228296803567
    outer loop
      vertex 0.007777777777777778 0.0025 -6.293227609081265e-05
      vertex 0.007777777777777778 0.00375 4.806380045072101e-05
      vertex 0.008888888888888889 0.00375 -0.00019067353450954978
    endloop
  endfacet
  facet normal -0.17826128464874208 0.05807355737438543 -0.9822679758239419
    outer loop
      vertex 0.007777777777777778 0.0025 -6.293227609081265e-05
      vertex 0.008888888888888889 0.00375 -0.00019067353450954978
      vertex 0.008888888888888889 0.0025 -0.0002645759201157694
    endloop
  endfacet
  facet normal -0.5849787649991958 0.04786715712218636 -0.8096348434751653
    outer loop
      vertex 0.008888888888888889 0.0025 -0.0002645759201157694
      vertex 0.008888888888888889 0.00375 -0.00019067353450954978
      vertex 0.01 0.00375 -0.0009934754529210557
    endloop
  endfacet
  facet normal -0.6232983724608873 0.10194417104776887 -0.7753105989711429
    outer loop
      vertex 0.008888888888888889 0.0025 -0.0002645759201157694
      vertex 0.01 0.00375 -0.0009934754529210557
      vertex 0.01 0.0025 -0.0011578356641432604
    endloop
  endfacet
  facet normal -0.4057224288642317 0.5714044704601018 -0.7133626299819182
    outer loop
      vertex 0.0 0.00375 -0.000494970542306029
      vertex 0.0 0.005 0.0005062812166951842
      vertex 0.0011111111111111111 0.005 -0.00012565922956769582
    endloop
  endfacet
  facet normal 0.40441856529214937 -0.09060231992419378 -0.9100751857244507
    outer loop
      vertex 0.0 0.00375 -0.000494970542306029
      vertex 0.0011111111111111111 0.005 -0.00012565922956769582
      vertex 0.0011111111111111111 0.00375 -1.2157751347645075e-06
    endloop
  endfacet
  facet normal -0.6872250834781175 -0.07196526542856582 -0.7228711401143988
    outer loop
      vertex 0.0011111111111111111 0.00375 -1.2157751347645075e-06
      vertex 0.0011111111111111111 0.005 -0.00012565922956769582
      vertex 0.0022222222222222222 0.005 -0.0011819794832244618
    endloop
  endfacet
  facet normal 0.1666607211745493 -0.7513207117947394 -0.6385463115904948
    outer loop
      vertex 0.0011111111111111111 0.00375 -1.2157751347645075e-06
      vertex 0.0022222222222222222 0.005 -0.0011819794832244618
      vertex 0.0022222222222222222 0.00375 0.00028878445777173945
    endloop
  endfacet
  facet normal 0.3574040036308976 -0.7116487935683086 -0.6048292096132397
    outer loop
      vertex 0.0022222222222222222 0.00375 0.00028878445777173945
      vertex 0.0022222222222222222 0.005 -0.0011819794832244618
      vertex 0.0033333333333333335 0.005 -0.0005254047786994881
    endloop
  endfacet
  facet normal -0.12837930813704057 -0.45862372278124963 -0.8793082702582311
    outer loop
      vertex 0.0022222222222222222 0.00375 0.00028878445777173945
      vertex 0.0033333333333333335 0.005 -0.0005254047786994881
      vertex 0.0033333333333333335 0.00375 0.0001265618556052297
    endloop
  endfacet
  facet normal -0.41338181467248714 -0.4210878429867085 -0.807341627681171
    outer loop
      vertex 0.0033333333333333335 0.00375 0.0001265618556052297
      vertex 0.0033333333333333335 0.005 -0.0005254047786994881
      vertex 0.0044444444444444444 0.005 -0.0010943251857062513
    endloop
  endfacet
  facet normal -0.5048638635675853 -0.3302024798367326 -0.7975454855826613
    outer loop
      vertex 0.0033333333333333335 0.00375 0.0001265618556052297
      vertex 0.0044444444444444444 0.005 -0.0010943251857062513
      vertex 0.0044444444444444444 0.00375 -0.0005767959572706198
    endloop
  endfacet
  facet normal 0.49573517984344284 -0.332220250676224 -0.8024190529307091
    outer loop
      vertex 0.0044444444444444444 0.00375 -0.0005767959572706198
      vertex 0.0044444444444444444 0.005 -0.0010943251857062513
      vertex 0.005555555555555556 0.005 -0.0004078797872813977
    endloop
  endfacet
  facet normal 0.5862724585970653 -0.4282003749795411 -0.6876983664063283
    outer loop
      vertex 0.0044444444444444444 0.00375 -0.0005767959572706198
      vertex 0.005555555555555556 0.005 -0.0004078797872813977
      vertex 0.005555555555555556 0.00375 0.0003704417776242436
    endloop
  endfacet
  facet normal 0.17813939837520135 -0.5201137746670376 -0.8353131246114401
    outer loop
      vertex 0.005555555555555556 0.00375 0.0003704417776242436
      vertex 0.005555555555555556 0.005 -0.0004078797872813977
      vertex 0.006666666666666667 0.005 -0.00017092353814619288
    endloop
  endfacet
  facet normal -0.6413621472056813 0.25701294365186333 -0.7229100517541046
    outer loop
      vertex 0.005555555555555556 0.00375 0.0003704417776242436
      vertex 0.006666666666666667 0.005 -0.00017092353814619288
      vertex 0.006666666666666667 0.00375 -0.0006153303890196773
    endloop
  endfacet
  facet normal -0.6897666590899573 0.24253941705530951 -0.6821998147041298
    outer loop
      vertex 0.006666666666666667 0.00375 -0.0006153303890196773
      vertex 0.006666666666666667 0.005 -0.00017092353814619288
      vertex 0.007777777777777778 0.005 -0.0012943589048374498
    endloop
  endfacet
  facet normal 0.37687132476982843 -0.6778883925835836 -0.6312173411485775
    outer loop
      vertex 0.006666666666666667 0.00375 -0.0006153303890196773
      vertex 0.007777777777777778 0.005 -0.0012943589048374498
      vertex 0.007777777777777778 0.00375 4.806380045072101e-05
    endloop
  endfacet
  facet normal -0.06038003407404611 -0.7305156772219831 -0.6802213586900403
    outer loop
      vertex 0.007777777777777778 0.00375 4.806380045072101e-05
      vertex 0.007777777777777778 0.005 -0.0012943589048374498
      vertex 0.008888888888888889 0.005 -0.0013929869850820027
    endloop
  endfacet
  facet normal -0.15303259003260833 -0.6850602526189669 -0.7122313364838344
    outer loop
      vertex 0.007777777777777778 0.00375 4.806380045072101e-05
      vertex 0.008888888888888889 0.005 -0.0013929869850820027
      vertex 0.008888888888888889 0.00375 -0.00019067353450954978
    endloop
  endfacet
  facet normal 0.6241143383044792 -0.5416400996451091 -0.5631228064811428
    outer loop
      vertex 0.008888888888888889 0.00375 -0.00019067353450954978
      vertex 0.008888888888888889 0.005 -0.0013929869850820027
      vertex 0.01 0.005 -0.0001615320201744721
    endloop
  endfacet
  facet normal -0.5154298297600048 0.4747909397227191 -0.7133762360429381
    outer loop
      vertex 0.008888888888888889 0.00375 -0.00019067353450954978
      vertex 0.01 0.005 -0.0001615320201744721
      vertex 0.01 0.00375 -0.0009934754529210557
    endloop
  endfacet
endsolid bottom
solid left
  facet normal -1.0 0.0 0.0
    outer loop
      vertex 0.0 0.0 6.999353474703218e-05
      vertex 0.0 0.0 0.0010699935347470322
      vertex 0.0 0.00125 0.0006485732511994161
    endloop
  endfacet
  facet normal -1.0 0.0 0.0
    outer loop
      vertex 0.0 0.0 6.999353474703218e-05
      vertex 0.0 0.00125 0.0006485732511994161
      vertex 0.0 0.00125 -0.0003514267488005839
    endloop
  endfacet
  facet normal -1.0 0.0 0.0
    outer loop
      vertex 0.0 0.00125 -0.0003514267488005839
      vertex 0.0 0.00125 0.0006485732511994161
      vertex 0.0 0.0025 0.0002601609922698987
    endloop
  endfacet
  facet normal -1.0 0.0 0.0
    outer loop
      vertex 0.0 0.00125 -0.0003514267488005839
      vertex 0.0 0.0025 0.0002601609922698987
      vertex 0.0 0.0025 -0.0007398390077301013
    endloop
  endfacet
  facet normal -1.0 0.0 0.0
    outer loop
      vertex 0.0 0.0025 -0.0007398390077301013
      vertex 0.0 0.0025 0.0002601609922698987
      vertex 0.0 0.00375 0.000505029457693971
    endloop
  endfacet
  facet normal -1.0 0.0 0.0
    outer loop
      vertex 0.0 0.0025 -0.0007398390077301013
      vertex 0.0 0.00375 0.000505029457693971
      vertex 0.0 0.00375 -0.000494970542306029
    endloop
  endfacet
  facet normal -1.0 0.0 0.0
    outer loop
      vertex 0.0 0.00375 -0.000494970542306029
      vertex 0.0 0.00375 0.000505029457693971
      vertex 0.0 0.005 0.0015062812166951843
    endloop
  endfacet
  facet normal -1.0 0.0 0.0
    outer loop
      vertex 0.0 0.00375 -0.000494970542306029
      vertex 0.0 0.005 0.0015062812166951843
      vertex 0.0 0.005 0.0005062812166951842
    endloop
  endfacet
endsolid left
solid right
  facet normal 1.0 -0.0 0.0
    outer loop
      vertex 0.01 0.0 -0.0003927712422085975
      vertex 0.01 0.00125 -0.0008066908212755182
      vertex 0.01 0.00125 0.0001933091787244819
    endloop
  endfacet
  facet normal 1.0 0.0 0.0
    outer loop
      vertex 0.01 0.0 -0.0003927712422085975
      vertex 0.01 0.00125 0.0001933091787244819
      vertex 0.01 0.0 0.0006072287577914025
    endloop
  endfacet
  facet normal 1.0 -0.0 0.0
    outer loop
      vertex 0.01 0.00125 -0.0008066908212755182
      vertex 0.01 0.0025 -0.0011578356641432604
      vertex 0.01 0.0025 -0.00015783566414326046
    endloop
  endfacet
  facet normal 1.0 0.0 0.0
    outer loop
      vertex 0.01 0.00125 -0.0008066908212755182
      vertex 0.01 0.0025 -0.00015783566414326046
      vertex 0.01 0.00125 0.0001933091787244819
    endloop
  endfacet
  facet normal 1.0 0.0 0.0
    outer loop
      vertex 0.01 0.0025 -0.0011578356641432604
      vertex 0.01 0.00375 -0.0009934754529210557
      vertex 0.01 0.00375 6.5245470789444534e-06
    endloop
  endfacet
  facet normal 1.0 0.0 0.0
    outer loop
      vertex 0.01 0.0025 -0.0011578356641432604
      vertex 0.01 0.00375 6.5245470789444534e-06
      vertex 0.01 0.0025 -0.00015783566414326046
    endloop
  endfacet
  facet normal 1.0 0.0 0.0
    outer loop
      vertex 0.01 0.00375 -0.0009934754529210557
      vertex 0.01 0.005 -0.0001615320201744721
      vertex 0.01 0.005 0.0008384679798255279
    endloop
  endfacet
  facet normal 1.0 0.0 0.0
    outer loop
      vertex 0.01 0.00375 -0.0009934754529210557
      vertex 0.01 0.005 0.0008384679798255279
      vertex 0.01 0.00375 6.5245470789444534e-06
    endloop
  endfacet
endsolid right
solid front
  facet normal 0.0 -1.0 0.0
    outer loop
      vertex 0.0 0.0 6.999353474703218e-05
      vertex 0.0011111111111111111 0.0 -0.000718172247932344
      vertex 0.0011111111111111111 0.0 0.000281827752067656
    endloop
  endfacet
  facet normal 0.0 -1.0 0.0
    outer loop
      vertex 0.0 0.0 6.999353474703218e-05
      vertex 0.0011111111111111111 0.0 0.000281827752067656
      vertex 0.0 0.0 0.0010699935347470322
    endloop
  endfacet
  facet normal 0.0 -1.0 0.0
    outer loop
      vertex 0.0011111111111111111 0.0 -0.000718172247932344
      vertex 0.0022222222222222222 0.0 -0.0012543377439540313
      vertex 0.0022222222222222222 0.0 -0.0002543377439540314
    endloop
  endfacet
  facet normal 0.0 -1.0 0.0
    outer loop
      vertex 0.0011111111111111111 0.0 -0.000718172247932344
      vertex 0.0022222222222222222 0.0 -0.0002543377439540314
      vertex 0.0011111111111111111 0.0 0.000281827752067656
    endloop
  endfacet
  facet normal 0.0 -1.0 0.0
    outer loop
      vertex 0.0022222222222222222 0.0 -0.0012543377439540313
      vertex 0.0033333333333333335 0.0 -0.00016885279902293914
      vertex 0.0033333333333333335 0.0 0.0008311472009770608
    endloop
  endfacet
  facet normal 0.0 -1.0 0.0
    outer loop
      vertex 0.0022222222222222222 0.0 -0.0012543377439540313
      vertex 0.0033333333333333335 0.0 0.0008311472009770608
      vertex 0.0022222222222222222 0.0 -0.0002543377439540314
    endloop
  endfacet
  facet normal 0.0 -1.0 0.0
    outer loop
      vertex 0.0033333333333333335 0.0 -0.00016885279902293914
      vertex 0.0044444444444444444 0.0 -0.0002877368470411379
      vertex 0.0044444444444444444 0.0 0.0007122631529588621
    endloop
  endfacet
  facet normal 0.0 -1.0 0.0
    outer loop
      vertex 0.0033333333333333335 0.0 -0.00016885279902293914
      vertex 0.0044444444444444444 0.0 0.0007122631529588621
      vertex 0.0033333333333333335 0.0 0.0008311472009770608
    endloop
  endfacet
  facet normal 0.0 -1.0 0.0
    outer loop
      vertex 0.0044444444444444444 0.0 -0.0002877368470411379
      vertex 0.005555555555555556 0.0 -9.521399129217528e-05
      vertex 0.005555555555555556 0.0 0.0009047860087078248
    endloop
  endfacet
  facet normal 0.0 -1.0 0.0
    outer loop
      vertex 0.0044444444444444444 0.0 -0.0002877368470411379
      vertex 0.005555555555555556 0.0 0.0009047860087078248
      vertex 0.0044444444444444444 0.0 0.0007122631529588621
    endloop
  endfacet
  facet normal 0.0 -1.0 0.0
    outer loop
      vertex 0.005555555555555556 0.0 -9.521399129217528e-05
      vertex 0.006666666666666667 0.0 -0.00024917290099017177
      vertex 0.006666666666666667 0.0 0.0007508270990098282
    endloop
  endfacet
  facet normal 0.0 -1.0 0.0
    outer loop
      vertex 0.005555555555555556 0.0 -9.521399129217528e-05
      vertex 0.006666666666666667 0.0 0.0007508270990098282
      vertex 0.005555555555555556 0.0 0.0009047860087078248
    endloop
  endfacet
  facet normal 0.0 -1.0 0.0
    outer loop
      vertex 0.006666666666666667 0.0 -0.00024917290099017177
      vertex 0.007777777777777778 0.0 -0.0010711045815044447
      vertex 0.007777777777777778 0.0 -7.110458150444466e-05
    endloop
  endfacet
  facet normal 0.0 -1.0 0.0
    outer loop
      vertex 0.006666666666666667 0.0 -0.00024917290099017177
      vertex 0.007777777777777778 0.0 -7.110458150444466e-05
      vertex 0.006666666666666667 0.0 0.0007508270990098282
    endloop
  endfacet
  facet normal 0.0 -1.0 0.0
    outer loop
      vertex 0.007777777777777778 0.0 -0.0010711045815044447
      vertex 0.008888888888888889 0.0 -0.0012518878450334828
      vertex 0.008888888888888889 0.0 -0.0002518878450334828
    endloop
  endfacet
  facet normal 0.0 -1.0 0.0
    outer loop
      vertex 0.007777777777777778 0.0 -0.0010711045815044447
      vertex 0.008888888888888889 0.0 -0.0002518878450334828
      vertex 0.007777777777777778 0.0 -7.110458150444466e-05
    endloop
  endfacet
  facet normal 0.0 -1.0 0.0
    outer loop
      vertex 0.008888888888888889 0.0 -0.0012518878450334828
      vertex 0.01 0.0 -0.0003927712422085975
      vertex 0.01 0.0 0.0006072287577914025
    endloop
  endfacet
  facet normal 0.0 -1.0 0.0
    outer loop
      vertex 0.008888888888888889 0.0 -0.0012518878450334828
      vertex 0.01 0.0 0.0006072287577914025
      vertex 0.008888888888888889 0.0 -0.0002518878450334828
    endloop
  endfacet
endsolid front
solid back
  facet normal 0.0 1.0 0.0
    outer loop
      vertex 0.0 0.005 0.0005062812166951842
      vertex 0.0 0.005 0.0015062812166951843
      vertex 0.0011111111111111111 0.005 0.0008743407704323041
    endloop
  endfacet
  facet normal -0.0 1.0 0.0
    outer loop
      vertex 0.0 0.005 0.0005062812166951842
      vertex 0.0011111111111111111 0.005 0.0008743407704323041
      vertex 0.0011111111111111111 0.005 -0.00012565922956769582
    endloop
  endfacet
  facet normal -0.0 1.0 0.0
    outer loop
      vertex 0.0011111111111111111 0.005 -0.00012565922956769582
      vertex 0.0011111111111111111 0.005 0.0008743407704323041
      vertex 0.0022222222222222222 0.005 -0.000181979483224462
    endloop
  endfacet
  facet normal 0.0 1.0 0.0
    outer loop
      vertex 0.0011111111111111111 0.005 -0.00012565922956769582
      vertex 0.0022222222222222222 0.005 -0.000181979483224462
      vertex 0.0022222222222222222 0.005 -0.0011819794832244618
    endloop
  endfacet
  facet normal 0.0 1.0 0.0
    outer loop
      vertex 0.0022222222222222222 0.005 -0.0011819794832244618
      vertex 0.0022222222222222222 0.005 -0.000181979483224462
      vertex 0.0033333333333333335 0.005 0.0004745952213005119
    endloop
  endfacet
  facet normal 0.0 1.0 0.0
    outer loop
      vertex 0.0022222222222222222 0.005 -0.0011819794832244618
      vertex 0.0033333333333333335 0.005 0.0004745952213005119
      vertex 0.0033333333333333335 0.005 -0.0005254047786994881
    endloop
  endfacet
  facet normal 0.0 1.0 0.0
    outer loop
      vertex 0.0033333333333333335 0.005 -0.0005254047786994881
      vertex 0.0033333333333333335 0.005 0.0004745952213005119
      vertex 0.0044444444444444444 0.005 -9.432518570625115e-05
    endloop
  endfacet
  facet normal -0.0 1.0 0.0
    outer loop
      vertex 0.0033333333333333335 0.005 -0.0005254047786994881
      vertex 0.0044444444444444444 0.005 -9.432518570625115e-05
      vertex 0.0044444444444444444 0.005 -0.0010943251857062513
    endloop
  endfacet
  facet normal 0.0 1.0 0.0
    outer loop
      vertex 0.0044444444444444444 0.005 -0.0010943251857062513
      vertex 0.0044444444444444444 0.005 -9.432518570625115e-05
      vertex 0.005555555555555556 0.005 0.0005921202127186023
    endloop
  endfacet
  facet normal 0.0 1.0 0.0
    outer loop
      vertex 0.0044444444444444444 0.005 -0.0010943251857062513
      vertex 0.005555555555555556 0.005 0.0005921202127186023
      vertex 0.005555555555555556 0.005 -0.0004078797872813977
    endloop
  endfacet
  facet normal 0.0 1.0 0.0
    outer loop
      vertex 0.005555555555555556 0.005 -0.0004078797872813977
      vertex 0.005555555555555556 0.005 0.0005921202127186023
      vertex 0.006666666666666667 0.005 0.0008290764618538071
    endloop
  endfacet
  facet normal 0.0 1.0 0.0
    outer loop
      vertex 0.005555555555555556 0.005 -0.0004078797872813977
      vertex 0.006666666666666667 0.005 0.0008290764618538071
      vertex 0.006666666666666667 0.005 -0.00017092353814619288
    endloop
  endfacet
  facet normal -0.0 1.0 0.0
    outer loop
      vertex 0.006666666666666667 0.005 -0.00017092353814619288
      vertex 0.006666666666666667 0.005 0.0008290764618538071
      vertex 0.007777777777777778 0.005 -0.00029435890483744986
    endloop
  endfacet
  facet normal 0.0 1.0 0.0
    outer loop
      vertex 0.006666666666666667 0.005 -0.00017092353814619288
      vertex 0.007777777777777778 0.005 -0.00029435890483744986
      vertex 0.007777777777777778 0.005 -0.0012943589048374498
    endloop
  endfacet
  facet normal 0.0 1.0 0.0
    outer loop
      vertex 0.007777777777777778 0.005 -0.0012943589048374498
      vertex 0.007777777777777778 0.005 -0.00029435890483744986
      vertex 0.008888888888888889 0.005 -0.0003929869850820026
    endloop
  endfacet
  facet normal -0.0 1.0 0.0
    outer loop
      vertex 0.007777777777777778 0.005 -0.0012943589048374498
      vertex 0.008888888888888889 0.005 -0.0003929869850820026
      vertex 0.008888888888888889 0.005 -0.0013929869850820027
    endloop
  endfacet
  facet normal 0.0 1.0 0.0
    outer loop
      vertex 0.008888888888888889 0.005 -0.0013929869850820027
      vertex 0.008888888888888889 0.005 -0.0003929869850820026
      vertex 0.01 0.005 0.0008384679798255279
    endloop
  endfacet
  facet normal 0.0 1.0 0.0
    outer loop
      vertex 0.008888888888888889 0.005 -0.0013929869850820027
      vertex 0.01 0.005 0.0008384679798255279
      vertex 0.01 0.005 -0.0001615320201744721
    endloop
  endfacet
endsolid back
